<svg id="Слой_1" data-name="Слой 1" xmlns="http://www.w3.org/2000/svg" viewBox="0 0 20 20"><defs><style>.cls-1,.cls-2{fill:#ea5a5a;}.cls-2{stroke:#ea5a5a;stroke-miterlimit:10;}</style></defs><title>Smaller icon1</title><path class="cls-1" d="M19,1V19H1V1H19m1-1H0V20H20V0Z"/><rect class="cls-2" x="3.5" y="3.5" width="1" height="1"/><rect class="cls-2" x="6.5" y="3.5" width="1" height="1"/><rect class="cls-2" x="9.5" y="3.5" width="1" height="1"/><rect class="cls-2" x="12.5" y="3.5" width="1" height="1"/><rect class="cls-2" x="15.5" y="3.5" width="1" height="1"/><rect class="cls-2" x="15.5" y="6.5" width="1" height="1"/><rect class="cls-2" x="12.5" y="6.5" width="1" height="1"/><rect class="cls-2" x="9.5" y="6.5" width="1" height="1"/><rect class="cls-2" x="6.5" y="6.5" width="1" height="1"/><rect class="cls-2" x="3.5" y="6.5" width="1" height="1"/><rect class="cls-2" x="15.5" y="9.5" width="1" height="1"/><rect class="cls-2" x="12.5" y="9.5" width="1" height="1"/><rect class="cls-2" x="9.5" y="9.5" width="1" height="1"/><rect class="cls-2" x="6.5" y="9.5" width="1" height="1"/><rect class="cls-2" x="3.5" y="9.5" width="1" height="1"/><rect class="cls-2" x="15.5" y="12.5" width="1" height="1"/><rect class="cls-2" x="12.5" y="12.5" width="1" height="1"/><rect class="cls-2" x="9.5" y="12.5" width="1" height="1"/><rect class="cls-2" x="6.5" y="12.5" width="1" height="1"/><rect class="cls-2" x="3.5" y="12.5" width="1" height="1"/><rect class="cls-2" x="15.5" y="15.5" width="1" height="1"/><rect class="cls-2" x="12.5" y="15.5" width="1" height="1"/><rect class="cls-2" x="9.5" y="15.5" width="1" height="1"/><rect class="cls-2" x="6.5" y="15.5" width="1" height="1"/><rect class="cls-2" x="3.5" y="15.5" width="1" height="1"/></svg>