<?xml version="1.0" encoding="utf-8"?>
<!-- Generator: Adobe Illustrator 23.0.1, SVG Export Plug-In . SVG Version: 6.00 Build 0)  -->
<svg version="1.1" id="Слой_1" xmlns="http://www.w3.org/2000/svg" xmlns:xlink="http://www.w3.org/1999/xlink" x="0px" y="0px"
	 viewBox="0 0 13 13" style="enable-background:new 0 0 13 13;" xml:space="preserve">
<style type="text/css">
	.st0{fill-rule:evenodd;clip-rule:evenodd;fill:#C0C0C0;}
</style>
<path id="Forma_1" class="st0" d="M10.6,8C9.9,8,9.2,8.3,8.7,8.9L4.7,6.9c0.1-0.2,0.1-0.4,0.1-0.6c0-0.2,0-0.4-0.1-0.7l4-2
	c0.9,1.2,2.8,1.3,3.7,0c0.5-0.6,0.6-1.6,0.3-2.3c-0.6-1.5-2.4-1.9-3.6-1C8.6,0.7,8.2,1.4,8.2,2.1c0,0.2,0,0.4,0.1,0.6L4.3,4.8
	c-0.9-1.2-2.8-1.3-3.8,0C0,5.5-0.1,6.4,0.2,7.1c0.7,1.5,2.5,1.9,3.7,1C4,8,4.2,7.8,4.3,7.7l4,2c-0.1,0.2-0.1,0.4-0.1,0.7
	c0,1.5,1.4,2.7,3,2.3c0.8-0.2,1.5-0.9,1.7-1.7C13.3,9.4,12.1,8,10.6,8C10.6,8,10.6,8,10.6,8z"/>
</svg>
