<svg data-name="Слой 1" xmlns="http://www.w3.org/2000/svg" viewBox="0 0 20 20"><path d="M19 1v18H1V1h18m1-1H0v20h20V0z" fill="#ea5a5a"/><path d="M3.5 3.5h1v1h-1zm3 0h1v1h-1zm3 0h1v1h-1zm3 0h1v1h-1zm3 0h1v1h-1zm0 3h1v1h-1zm-3 0h1v1h-1zm-3 0h1v1h-1zm-3 0h1v1h-1zm-3 0h1v1h-1zm12 3h1v1h-1zm-3 0h1v1h-1zm-3 0h1v1h-1zm-3 0h1v1h-1zm-3 0h1v1h-1zm12 3h1v1h-1zm-3 0h1v1h-1zm-3 0h1v1h-1zm-3 0h1v1h-1zm-3 0h1v1h-1zm12 3h1v1h-1zm-3 0h1v1h-1zm-3 0h1v1h-1zm-3 0h1v1h-1zm-3 0h1v1h-1z" fill="#ea5a5a" stroke="#ea5a5a" stroke-miterlimit="10"/></svg>