<?xml version="1.0" standalone="no"?>
<!DOCTYPE svg PUBLIC "-//W3C//DTD SVG 20010904//EN"
 "http://www.w3.org/TR/2001/REC-SVG-20010904/DTD/svg10.dtd">
<svg version="1.0" xmlns="http://www.w3.org/2000/svg"
 width="900.000000pt" height="900.000000pt" viewBox="0 0 900.000000 900.000000"
 preserveAspectRatio="xMidYMid meet">
<metadata>
Created by potrace 1.11, written by Peter Selinger 2001-2013
</metadata>
<g transform="translate(0.000000,900.000000) scale(0.100000,-0.100000)"
fill="#000000" stroke="none">
<path d="M4265 8713 c-271 -6 -729 -81 -990 -163 -538 -169 -915 -362 -1350
-690 -71 -54 -142 -109 -156 -122 -14 -13 -46 -40 -70 -62 -179 -156 -408
-401 -549 -586 -81 -105 -240 -334 -240 -345 0 -3 -14 -27 -32 -53 -38 -55
-106 -181 -187 -347 -152 -309 -280 -698 -341 -1035 -24 -134 -29 -168 -39
-265 -6 -55 -14 -118 -17 -140 -12 -77 -16 -629 -5 -710 6 -44 15 -127 22
-185 31 -286 116 -641 221 -920 221 -591 526 -1067 963 -1506 317 -318 547
-494 947 -723 59 -33 109 -61 111 -61 2 0 65 -29 138 -64 201 -95 417 -176
629 -236 25 -7 56 -16 70 -21 34 -11 193 -48 258 -60 28 -5 78 -14 110 -20
182 -33 488 -59 714 -59 184 0 246 4 503 31 332 35 744 142 1082 280 133 55
401 186 488 239 28 17 57 33 65 37 18 8 276 178 341 225 207 150 531 452 709
662 404 477 713 1066 860 1641 300 1172 104 2382 -546 3372 -263 399 -558 714
-984 1051 -150 119 -392 269 -625 387 -472 240 -938 377 -1480 434 -99 11
-427 18 -620 14z m-897 -2605 c1 -159 3 -289 5 -290 1 -2 765 -5 1697 -8
l1695 -5 60 -29 c111 -55 190 -155 215 -273 7 -32 10 -469 8 -1298 l-3 -1250
-32 -65 c-54 -107 -129 -174 -235 -209 l-64 -21 -2264 2 -2265 3 -67 32 c-128
60 -210 174 -228 315 -11 89 -12 2330 -1 2438 15 147 99 268 226 327 56 26 70
28 230 33 l170 5 3 279 c1 187 6 284 13 293 10 11 88 13 423 11 l411 -3 3
-287z"/>
<path d="M4265 5525 c-422 -79 -754 -328 -942 -706 -24 -48 -43 -94 -43 -103
0 -8 -4 -17 -9 -20 -5 -3 -11 -16 -14 -28 -3 -13 -15 -59 -26 -103 -101 -388
-6 -817 248 -1125 25 -30 68 -78 96 -106 51 -51 189 -164 200 -164 4 0 19 -9
34 -20 75 -53 241 -122 366 -153 186 -45 401 -48 583 -8 244 54 450 168 633
350 147 146 250 309 312 491 24 71 31 102 56 228 6 30 11 118 11 196 0 245
-62 472 -183 666 -201 322 -494 525 -866 599 -121 25 -342 27 -456 6z m395
-609 c256 -80 404 -231 491 -501 17 -53 18 -255 1 -325 -25 -103 -99 -237
-171 -310 -144 -146 -307 -215 -509 -214 -102 1 -137 8 -242 47 -361 135 -539
579 -371 927 34 70 101 167 137 201 102 92 255 170 371 189 75 12 236 4 293
-14z"/>
</g>
</svg>
