<svg version="1.0" xmlns="http://www.w3.org/2000/svg" width="1200" height="1200" viewBox="0 0 900 900"><path d="M426.5 28.7c-27.1.6-72.9 8.1-99 16.3-53.8 16.9-91.5 36.2-135 69-7.1 5.4-14.2 10.9-15.6 12.2-1.4 1.3-4.6 4-7 6.2C152 148 129.1 172.5 115 191c-8.1 10.5-24 33.4-24 34.5 0 .3-1.4 2.7-3.2 5.3-3.8 5.5-10.6 18.1-18.7 34.7-15.2 30.9-28 69.8-34.1 103.5-2.4 13.4-2.9 16.8-3.9 26.5-.6 5.5-1.4 11.8-1.7 14-1.2 7.7-1.6 62.9-.5 71 .6 4.4 1.5 12.7 2.2 18.5 3.1 28.6 11.6 64.1 22.1 92 22.1 59.1 52.6 106.7 96.3 150.6 31.7 31.8 54.7 49.4 94.7 72.3 5.9 3.3 10.9 6.1 11.1 6.1.2 0 6.5 2.9 13.8 6.4 20.1 9.5 41.7 17.6 62.9 23.6 2.5.7 5.6 1.6 7 2.1 3.4 1.1 19.3 4.8 25.8 6 2.8.5 7.8 1.4 11 2 18.2 3.3 48.8 5.9 71.4 5.9 18.4 0 24.6-.4 50.3-3.1 33.2-3.5 74.4-14.2 108.2-28 13.3-5.5 40.1-18.6 48.8-23.9 2.8-1.7 5.7-3.3 6.5-3.7 1.8-.8 27.6-17.8 34.1-22.5 20.7-15 53.1-45.2 70.9-66.2 40.4-47.7 71.3-106.6 86-164.1 30-117.2 10.4-238.2-54.6-337.2-26.3-39.9-55.8-71.4-98.4-105.1-15-11.9-39.2-26.9-62.5-38.7-47.2-24-93.8-37.7-148-43.4-9.9-1.1-42.7-1.8-62-1.4zm-89.7 260.5c.1 15.9.3 28.9.5 29 .1.2 76.5.5 169.7.8l169.5.5 6 2.9c11.1 5.5 19 15.5 21.5 27.3.7 3.2 1 46.9.8 129.8l-.3 125-3.2 6.5c-5.4 10.7-12.9 17.4-23.5 20.9l-6.4 2.1-226.4-.2-226.5-.3-6.7-3.2c-12.8-6-21-17.4-22.8-31.5-1.1-8.9-1.2-233-.1-243.8 1.5-14.7 9.9-26.8 22.6-32.7 5.6-2.6 7-2.8 23-3.3l17-.5.3-27.9c.1-18.7.6-28.4 1.3-29.3 1-1.1 8.8-1.3 42.3-1.1l41.1.3.3 28.7z"/><path d="M426.5 347.5c-42.2 7.9-75.4 32.8-94.2 70.6-2.4 4.8-4.3 9.4-4.3 10.3 0 .8-.4 1.7-.9 2-.5.3-1.1 1.6-1.4 2.8-.3 1.3-1.5 5.9-2.6 10.3-10.1 38.8-.6 81.7 24.8 112.5 2.5 3 6.8 7.8 9.6 10.6 5.1 5.1 18.9 16.4 20 16.4.4 0 1.9.9 3.4 2 7.5 5.3 24.1 12.2 36.6 15.3 18.6 4.5 40.1 4.8 58.3.8 24.4-5.4 45-16.8 63.3-35 14.7-14.6 25-30.9 31.2-49.1 2.4-7.1 3.1-10.2 5.6-22.8.6-3 1.1-11.8 1.1-19.6 0-24.5-6.2-47.2-18.3-66.6-20.1-32.2-49.4-52.5-86.6-59.9-12.1-2.5-34.2-2.7-45.6-.6zm39.5 60.9c25.6 8 40.4 23.1 49.1 50.1 1.7 5.3 1.8 25.5.1 32.5-2.5 10.3-9.9 23.7-17.1 31-14.4 14.6-30.7 21.5-50.9 21.4-10.2-.1-13.7-.8-24.2-4.7-36.1-13.5-53.9-57.9-37.1-92.7 3.4-7 10.1-16.7 13.7-20.1 10.2-9.2 25.5-17 37.1-18.9 7.5-1.2 23.6-.4 29.3 1.4z"/></svg>